<?xml version="1.0" standalone="no"?>
<!DOCTYPE svg PUBLIC "-//W3C//DTD SVG 20010904//EN"
 "http://www.w3.org/TR/2001/REC-SVG-20010904/DTD/svg10.dtd">
<svg version="1.0" xmlns="http://www.w3.org/2000/svg"
 width="1024.000000pt" height="1024.000000pt" viewBox="0 0 1024.000000 1024.000000"
 preserveAspectRatio="xMidYMid meet">
<metadata>
Created by potrace 1.14, written by Peter Selinger 2001-2017
</metadata>
<g transform="translate(0.000000,1024.000000) scale(0.100000,-0.100000)"
fill="#000000" stroke="none">
<path d="M4510 9306 c-14 -6 -27 -13 -30 -16 -3 -3 -25 -15 -50 -28 -25 -13
-83 -45 -130 -72 -47 -26 -105 -58 -130 -71 -25 -12 -47 -25 -50 -28 -7 -8
-118 -67 -260 -138 -63 -32 -116 -61 -118 -65 -2 -5 -8 -8 -14 -8 -5 0 -115
-52 -244 -115 -214 -106 -236 -119 -264 -160 -16 -24 -30 -48 -30 -54 0 -6 -4
-11 -10 -11 -5 0 -10 -7 -10 -15 0 -8 -4 -15 -10 -15 -5 0 -10 -3 -9 -7 2 -16
-14 -53 -22 -53 -5 0 -8 -3 -7 -7 2 -10 -13 -46 -22 -53 -4 -3 -22 -34 -40
-70 -19 -36 -42 -77 -52 -92 -10 -14 -18 -33 -18 -42 0 -9 -4 -16 -10 -16 -5
0 -10 -7 -10 -15 0 -8 -4 -15 -10 -15 -5 0 -12 -11 -16 -25 -3 -13 -12 -29
-20 -36 -8 -6 -14 -20 -14 -30 0 -11 -4 -19 -9 -19 -5 0 -20 -21 -33 -47 -30
-60 -51 -96 -59 -103 -3 -3 -14 -21 -24 -40 -10 -19 -21 -37 -24 -40 -5 -4
-22 -33 -55 -95 -6 -11 -14 -22 -17 -25 -3 -3 -16 -24 -29 -47 -13 -24 -28
-43 -34 -43 -5 0 -7 -3 -4 -6 3 -3 -18 -41 -48 -86 -30 -44 -54 -82 -54 -84 0
-2 -6 -12 -14 -21 -8 -10 -50 -63 -94 -118 -44 -56 -94 -116 -111 -134 -17
-18 -39 -46 -48 -62 -10 -16 -20 -29 -23 -29 -13 0 -3 -37 18 -72 12 -19 22
-41 22 -47 0 -7 5 -9 10 -6 6 3 10 2 10 -4 0 -14 48 -62 93 -93 20 -13 34 -28
30 -31 -3 -4 -2 -7 4 -7 5 0 26 -14 46 -31 20 -17 39 -31 43 -32 4 -1 19 -13
34 -27 29 -28 58 -52 112 -92 20 -15 42 -33 50 -40 14 -13 23 -19 86 -59 17
-12 32 -25 32 -30 0 -5 5 -9 10 -9 17 0 228 -172 328 -268 20 -19 31 -37 26
-40 -15 -11 -35 -62 -29 -73 4 -5 1 -9 -5 -9 -6 0 -9 -4 -5 -9 3 -5 1 -12 -5
-16 -6 -4 -8 -10 -5 -15 3 -5 1 -11 -5 -15 -6 -4 -8 -10 -5 -15 3 -5 1 -11 -5
-15 -6 -4 -8 -10 -5 -14 5 -8 -28 -140 -44 -176 -5 -11 -20 -47 -33 -80 -12
-33 -26 -61 -29 -63 -10 -4 0 -63 12 -78 13 -15 4 -84 -11 -84 -5 0 -12 -9
-15 -21 -8 -26 -76 -95 -132 -136 -23 -17 -39 -33 -36 -37 3 -3 1 -6 -5 -6
-25 0 -111 -104 -98 -117 3 -4 1 -12 -4 -18 -6 -7 -12 -41 -15 -76 -3 -35 -7
-89 -10 -119 -4 -30 -8 -73 -9 -95 -2 -22 -7 -65 -11 -95 -4 -30 -9 -62 -10
-70 -1 -8 -5 -28 -8 -45 -4 -16 -9 -43 -12 -60 -2 -16 -9 -45 -14 -62 -5 -18
-8 -33 -6 -33 2 0 -3 -19 -11 -42 -14 -41 -39 -139 -49 -198 -3 -16 -9 -40
-15 -54 -5 -15 -8 -26 -5 -26 2 0 -1 -15 -6 -32 -6 -18 -12 -42 -14 -53 -9
-51 -17 -86 -36 -160 -12 -44 -22 -84 -23 -90 -2 -5 -12 -31 -24 -58 -12 -26
-22 -49 -22 -52 0 -3 -10 -22 -21 -42 -12 -21 -31 -56 -42 -78 -12 -22 -28
-46 -34 -53 -7 -7 -13 -19 -13 -27 0 -7 -4 -15 -8 -17 -11 -4 -106 -127 -122
-157 -7 -13 -14 -63 -16 -110 -4 -106 -7 -124 -17 -132 -5 -3 -9 -12 -10 -20
-2 -8 -13 -32 -25 -52 -12 -21 -22 -42 -22 -48 0 -5 -4 -9 -10 -9 -5 0 -10 -6
-10 -12 -1 -18 -59 -86 -60 -70 0 7 -4 11 -8 8 -10 -6 -8 106 2 122 4 7 3 12
-3 12 -6 0 -8 7 -5 15 9 22 11 156 3 187 -4 14 -4 29 -1 33 3 3 7 157 8 343 5
559 12 1010 16 1019 10 20 -18 73 -39 73 -7 0 -13 4 -13 9 0 4 -20 19 -45 32
-25 13 -45 27 -45 30 0 4 -11 10 -25 13 -14 4 -25 11 -25 17 0 6 -4 7 -10 4
-5 -3 -10 -2 -10 4 0 5 -9 13 -20 16 -11 3 -26 12 -32 19 -7 6 -40 27 -73 46
-33 18 -62 36 -65 39 -7 8 -37 26 -80 49 -19 11 -48 26 -63 35 -32 17 -70 16
-196 -7 -47 -8 -88 -13 -93 -10 -4 3 -8 1 -8 -3 0 -5 -12 -10 -27 -11 -44 -4
-62 -8 -69 -14 -3 -4 -12 -4 -20 -1 -8 3 -14 -1 -14 -8 0 -7 -3 -9 -6 -6 -8 7
-55 -25 -99 -67 -16 -15 -52 -47 -78 -70 -27 -22 -70 -60 -95 -83 -26 -24 -50
-43 -54 -43 -5 0 -8 -6 -8 -14 0 -8 -5 -16 -11 -18 -7 -2 -13 -32 -15 -72 -2
-37 -6 -71 -9 -77 -4 -5 -3 -9 2 -9 4 0 9 -129 10 -288 2 -388 12 -1283 16
-1358 2 -46 8 -66 25 -84 21 -22 21 -25 5 -34 -10 -5 -27 -11 -38 -12 -52 -6
-165 -45 -166 -58 -1 -6 -3 -45 -4 -86 -2 -41 -4 -79 -5 -85 -1 -5 -1 -12 0
-15 1 -3 3 -44 4 -92 1 -57 -2 -85 -9 -81 -5 3 -4 0 2 -8 7 -7 13 -21 13 -31
0 -33 42 -66 119 -96 42 -17 148 -57 236 -91 88 -34 179 -71 203 -81 23 -11
49 -20 57 -20 8 0 15 -5 15 -10 0 -6 3 -9 8 -9 4 1 10 0 15 -1 4 -1 10 -3 15
-5 4 -1 18 -6 32 -12 54 -24 85 -36 95 -39 6 -1 30 -11 55 -22 42 -18 78 -33
90 -37 7 -2 62 -24 80 -32 8 -3 17 -7 20 -7 3 -1 30 -13 61 -28 32 -14 71 -29
88 -33 17 -3 33 -11 36 -16 4 -5 13 -9 21 -9 8 0 36 -9 62 -21 73 -33 110 -47
130 -50 4 0 12 -5 18 -10 7 -5 20 -11 30 -14 11 -2 37 -11 59 -21 22 -10 45
-19 50 -20 6 -1 21 -6 35 -12 14 -5 27 -9 30 -9 3 0 24 -10 48 -22 23 -12 42
-19 42 -16 0 3 17 -3 37 -14 21 -10 41 -19 45 -20 14 -3 42 -13 73 -26 17 -7
50 -20 75 -28 25 -9 61 -22 80 -30 59 -24 75 -30 80 -32 23 -8 50 -19 80 -32
19 -8 37 -15 40 -15 3 0 14 -5 25 -11 11 -6 25 -12 30 -13 6 -1 33 -11 60 -22
59 -24 86 -34 100 -38 6 -1 33 -13 60 -25 28 -13 52 -24 55 -24 9 -3 45 -17
85 -33 21 -10 42 -17 45 -18 3 0 19 -7 35 -14 17 -7 35 -14 41 -15 6 -2 27 -9
45 -18 47 -20 143 -57 284 -110 66 -25 129 -48 140 -53 11 -4 22 -8 25 -8 3
-1 19 -6 35 -13 35 -13 63 -22 70 -23 3 0 22 -7 43 -15 44 -18 182 -11 242 12
8 4 23 7 33 8 9 2 18 4 20 5 1 1 13 3 27 5 29 4 63 11 93 21 11 4 36 8 55 10
18 2 42 6 52 9 20 6 54 14 85 20 53 9 182 37 195 42 8 3 24 7 35 9 11 1 31 5
45 8 14 4 36 8 50 11 14 3 36 7 50 10 54 11 85 16 95 16 6 1 16 5 23 11 7 6
15 8 18 5 3 -3 20 -1 37 4 18 6 41 12 52 14 102 22 117 25 145 30 14 2 66 13
115 24 50 12 135 30 190 42 167 34 168 35 230 49 28 6 61 14 75 17 14 3 32 6
40 8 8 2 36 7 63 11 26 3 47 9 47 13 0 3 10 6 23 7 29 1 122 19 122 25 0 1 14
3 30 4 17 2 30 4 30 5 0 2 23 7 70 15 22 3 56 10 75 15 69 18 236 52 260 54
14 1 31 6 38 10 7 4 12 5 12 2 0 -2 15 0 33 5 34 11 90 21 120 22 9 1 17 4 17
8 0 3 21 10 48 13 26 4 54 9 62 11 30 7 216 46 245 51 17 3 37 7 45 10 8 3 26
8 40 10 14 2 36 7 50 11 35 9 51 12 85 18 17 2 48 9 70 15 22 6 56 13 75 16
19 2 59 11 88 20 29 8 57 12 62 9 6 -3 10 -1 10 6 0 7 3 10 6 7 3 -4 20 -2 37
3 18 5 47 11 66 14 18 2 43 8 55 12 11 4 29 8 39 9 9 1 19 3 22 4 3 1 10 4 15
5 6 1 11 3 13 5 1 1 11 3 22 5 35 5 79 14 113 24 18 5 35 10 37 10 10 0 161
33 175 38 8 3 22 7 30 8 8 1 38 7 65 14 28 6 110 25 184 42 74 16 140 34 147
40 8 7 14 7 19 0 4 -7 12 -7 23 -1 9 5 71 21 137 35 204 44 297 64 383 85 46
11 87 18 92 15 6 -4 10 -2 10 2 0 5 27 15 60 21 33 7 58 17 55 22 -4 6 0 10 9
10 22 0 29 51 27 215 -3 209 0 197 -45 223 -21 12 -47 22 -57 22 -10 0 -19 5
-19 10 0 6 -3 9 -7 8 -5 -1 -25 2 -45 6 -39 9 -55 21 -56 46 0 8 -3 25 -6 37
-2 13 -1 25 5 28 5 4 5 14 -1 26 -6 10 -7 19 -2 19 5 0 9 13 8 30 -1 16 -4 30
-8 30 -4 0 -3 14 2 30 11 37 10 40 -1 63 -7 11 -6 17 2 17 8 0 9 4 0 13 -6 8
-8 17 -5 20 8 7 9 105 2 113 -3 3 -2 21 2 40 5 20 4 34 -1 34 -6 0 -6 7 -1 18
9 19 8 54 -2 70 -4 7 -3 20 2 29 5 10 6 32 2 48 -3 17 -3 40 1 52 5 13 4 25
-2 28 -5 4 -8 14 -5 23 7 21 8 77 4 118 -2 18 -1 40 3 50 3 11 3 31 -2 47 -4
15 -5 27 -1 27 4 0 7 11 7 25 0 14 -3 25 -7 25 -4 0 -3 11 2 25 6 15 6 26 -1
30 -5 4 -7 11 -3 16 6 11 7 107 1 149 -2 14 1 33 5 43 5 10 5 17 -1 17 -6 0
-6 11 -1 29 4 16 6 32 3 35 -8 8 -7 201 1 214 4 7 4 12 -1 12 -4 0 -8 46 -9
103 -1 85 -5 111 -25 152 -12 28 -25 52 -28 55 -3 3 -7 10 -8 16 -1 6 -26 51
-56 100 -30 49 -65 109 -79 134 -14 25 -36 63 -48 85 -13 22 -39 69 -58 105
-55 103 -105 174 -129 185 -13 5 -23 13 -23 17 0 5 -6 8 -14 8 -23 0 -130 51
-148 70 -9 10 -28 40 -41 67 -13 26 -67 134 -119 238 -52 105 -112 228 -133
275 -58 129 -69 140 -171 179 -49 19 -93 38 -99 42 -5 5 -17 9 -27 9 -10 0
-26 4 -36 9 -31 16 -66 30 -127 52 -33 12 -64 25 -70 30 -5 5 -17 9 -27 9 -10
0 -26 4 -36 9 -29 16 -94 43 -106 45 -11 2 -108 38 -161 61 -76 33 -113 36
-230 19 -22 -3 -65 -8 -95 -10 -30 -3 -58 -7 -61 -10 -4 -2 -29 -7 -56 -9 -26
-3 -59 -8 -73 -10 -14 -3 -41 -7 -60 -10 -92 -15 -129 -35 -138 -76 -2 -8 -4
-76 -4 -152 -1 -149 7 -183 49 -193 13 -4 23 -11 23 -16 0 -5 6 -8 13 -5 6 2
27 -2 44 -10 18 -7 35 -13 38 -13 3 0 6 0 8 -1 4 -1 31 -8 52 -12 43 -10 111
-28 125 -34 8 -3 22 -7 30 -8 12 -2 53 -13 110 -30 3 -1 17 -5 31 -9 14 -4 26
-13 26 -19 1 -10 2 -82 2 -229 0 -10 1 -48 2 -85 0 -38 0 -72 -1 -78 -1 -5 -2
-14 -1 -20 2 -8 2 -62 0 -150 -1 -42 11 -1435 12 -1441 5 -29 -3 -64 -14 -64
-19 0 -136 59 -174 88 -18 13 -33 20 -33 16 0 -5 -4 -4 -8 2 -10 17 -156 75
-224 89 -30 6 -59 26 -53 36 4 5 2 9 -2 9 -5 0 -10 12 -11 27 -1 15 -7 30 -13
34 -6 3 -11 10 -11 15 -2 24 -11 44 -20 44 -5 0 -7 4 -4 9 4 5 3 11 -1 13 -10
4 -65 108 -57 108 3 0 -2 7 -10 16 -9 8 -16 24 -16 35 0 10 -4 19 -9 19 -5 0
-13 10 -17 22 -10 34 -105 188 -115 188 -5 0 -9 5 -9 10 0 6 -12 29 -27 51
-30 46 -29 31 -18 374 7 189 6 203 -14 245 -25 55 -73 140 -112 198 -16 24
-29 47 -29 51 0 4 -18 27 -40 51 -29 31 -45 41 -60 37 -11 -3 -23 -1 -26 4 -3
5 -10 7 -15 3 -5 -3 -49 -8 -97 -10 -48 -2 -103 -6 -122 -9 -20 -2 -41 -1 -47
3 -8 6 -99 135 -146 209 -5 9 4 18 30 30 46 22 55 28 101 74 29 28 41 35 57
28 11 -4 25 -8 31 -8 12 -1 74 48 74 59 0 4 19 27 43 51 46 49 133 149 169
195 13 16 37 43 53 60 17 18 48 51 69 75 21 24 92 100 157 169 154 164 160
171 229 267 70 98 96 150 117 243 9 41 5 103 -8 111 -8 5 -11 9 -7 9 4 0 -3
10 -15 23 -34 35 -102 119 -106 131 -2 6 -10 16 -17 21 -19 16 -98 117 -145
186 -24 35 -47 66 -51 67 -5 2 -8 8 -8 13 0 5 -31 57 -70 115 -38 59 -70 110
-70 115 0 5 -4 9 -10 9 -5 0 -10 7 -10 15 0 8 -4 15 -10 15 -5 0 -10 7 -10 15
0 8 -4 15 -10 15 -5 0 -10 4 -10 9 0 14 -426 649 -461 687 -11 11 -19 23 -19
27 0 4 -8 16 -17 26 -10 11 -23 26 -30 33 -7 7 -18 18 -26 24 -16 13 -163 96
-227 127 -25 12 -50 27 -57 33 -6 6 -26 17 -45 24 -18 8 -35 17 -38 20 -3 4
-41 26 -85 51 -44 24 -98 54 -120 67 -22 12 -52 27 -67 33 -16 6 -28 15 -28
20 0 5 -8 9 -18 9 -10 0 -22 4 -28 9 -5 5 -43 27 -84 49 -128 68 -184 99 -399
219 -62 34 -116 63 -119 63 -3 0 -13 6 -21 13 -32 26 -65 35 -91 23z m3604
-4717 c24 4 89 -39 146 -98 112 -115 195 -294 215 -466 12 -95 13 -430 3 -436
-9 -6 -123 20 -168 38 -8 3 -19 5 -24 4 -4 -1 -13 2 -20 7 -6 5 -32 15 -58 22
-26 7 -53 19 -59 26 -6 8 -18 14 -25 14 -13 0 -16 7 -13 26 0 4 -4 10 -10 14
-6 3 -14 29 -17 56 -8 65 -13 716 -5 729 7 13 8 18 10 58 1 21 4 28 10 19 4
-8 11 -13 15 -13z"/>
</g>
</svg>
